<svg xmlns="http://www.w3.org/2000/svg" viewBox="0 0 423.57 113.4"><defs><style>.cls-1{fill:#1d1e1c;}</style></defs><title>11Recurso 7</title><g id="Capa_2" data-name="Capa 2"><g id="Capa_1-2" data-name="Capa 1"><path class="cls-1" d="M174.4,38.9V93.1H156.3V87.7Q151,94,140.3,94a26.67,26.67,0,0,1-13.45-3.45,25.14,25.14,0,0,1-9.6-9.85,30,30,0,0,1-3.55-14.8,29.68,29.68,0,0,1,3.55-14.75,24.74,24.74,0,0,1,9.6-9.75A26.94,26.94,0,0,1,140.3,38q9.6,0,15.1,5.6V38.9ZM152.5,75.45q3.19-3.45,3.2-9.55t-3.2-9.4a11.59,11.59,0,0,0-16.4,0q-3.19,3.39-3.2,9.4t3.2,9.55a11.47,11.47,0,0,0,16.4,0Z"/><path class="cls-1" d="M239.2,38.9V83.2q0,15.09-8.2,22.65t-23.6,7.55a60,60,0,0,1-15-1.8,35.45,35.45,0,0,1-11.9-5.3L187.4,93a24.37,24.37,0,0,0,8.35,4.25,33.85,33.85,0,0,0,9.95,1.55q7.5,0,11-3.3t3.5-9.8V83.9q-5.5,6.39-16.1,6.4a27.9,27.9,0,0,1-13.3-3.25,24.8,24.8,0,0,1-9.7-9.2,26,26,0,0,1-3.6-13.75,25.81,25.81,0,0,1,3.6-13.65,24.66,24.66,0,0,1,9.7-9.2A27.79,27.79,0,0,1,204.1,38q11.6,0,17,7.5V38.9ZM217.05,72.1a10.43,10.43,0,0,0,3.35-8,10.31,10.31,0,0,0-3.3-7.95,12,12,0,0,0-8.5-3,12.17,12.17,0,0,0-8.55,3,10.22,10.22,0,0,0-3.35,7.95,10.34,10.34,0,0,0,3.4,8,12.16,12.16,0,0,0,8.5,3.1A12,12,0,0,0,217.05,72.1Z"/><path class="cls-1" d="M267.94,39.85A28.51,28.51,0,0,1,278.59,38V55.1a38.69,38.69,0,0,0-4.3-.3q-6.09,0-9.55,3.3t-3.45,10.1V93.1h-19V38.9h18.1v6.5A17.67,17.67,0,0,1,267.94,39.85Z"/><path class="cls-1" d="M336.85,51.45a26.48,26.48,0,0,0-10.9-9.9,36.82,36.82,0,0,0-31.55,0A26.71,26.71,0,0,0,279.55,65.9a26.79,26.79,0,0,0,14.9,24.5,36.25,36.25,0,0,0,31.5,0,26.85,26.85,0,0,0,10.9-10,27.31,27.31,0,0,0,3.9-14.5A27,27,0,0,0,336.85,51.45Zm-18.5,24a11.47,11.47,0,0,1-16.4,0q-3.19-3.45-3.2-9.55t3.2-9.4a11.59,11.59,0,0,1,16.4,0q3.19,3.39,3.2,9.4T318.35,75.45Z"/><path class="cls-1" d="M343.81,38.9h19V93.1h-19Z"/><path class="cls-1" d="M417.42,44q6.15,6,6.15,18.1v31h-19V65.2q0-11.1-8.9-11.1a10.13,10.13,0,0,0-7.85,3.2q-3,3.2-2.95,9.6V93.1h-19V38.9H384v5.9a21.36,21.36,0,0,1,7.6-5,25.65,25.65,0,0,1,9.6-1.75Q411.27,38,417.42,44Z"/><path class="cls-1" d="M346.38,24.65a14.22,14.22,0,0,1-2.24-7.91,14.14,14.14,0,0,1,7.49-12.53A31,31,0,0,1,367,0a38,38,0,0,1,11.32,1.53c1,.28,1.91.6,2.86,1,.32.12.35.19.13.47a41.46,41.46,0,0,0-4.43,6.89,36.89,36.89,0,0,0-2.74,7.46,32.65,32.65,0,0,1-1.87,5.85,15.2,15.2,0,0,1-4.41,5.25,13.86,13.86,0,0,1-8,3.23,14.69,14.69,0,0,1-10.65-3.57c-.24-.2-.24-.32-.07-.57a90,90,0,0,1,7.41-9.24c1.83-2,3.86-3.87,5.82-5.77a.78.78,0,0,0,.22-.3,25.57,25.57,0,0,0-9.37,4.53A26.81,26.81,0,0,0,346.38,24.65Z"/><path class="cls-1" d="M103.8,52.44a10.45,10.45,0,0,0-12.87-7.51A10.33,10.33,0,0,0,83.8,58.22a.78.78,0,0,1-.41,1.11c-3,1.86-6,3.73-9,5.64-.56.35-.83.23-1.26-.18a10.26,10.26,0,0,0-13.76-.55c-.45.36-.7.43-1.18.06q-5-3.81-10.07-7.54a.92.92,0,0,1-.34-1.34,9.92,9.92,0,0,0,.66-5.63,10.39,10.39,0,1,0-18.7,7.7.94.94,0,0,1,0,1.38q-6.75,7.92-13.42,15.91a.93.93,0,0,1-1.39.3A10.32,10.32,0,0,0,1.32,79.4,24.26,24.26,0,0,0,0,82.93v1.43a1.52,1.52,0,0,1,0,1.22V86c.27.14.18.41.23.63a10.4,10.4,0,1,0,18.64-8.17c-.36-.52-.43-.82,0-1.36q6.77-8,13.46-16a.89.89,0,0,1,1.27-.28,10,10,0,0,0,11-1.21.93.93,0,0,1,1.37,0c3.25,2.47,6.52,4.94,9.83,7.35a1.15,1.15,0,0,1,.42,1.66,10.38,10.38,0,1,0,19.55.58c-.18-.58-.15-.88.4-1.21q4.55-2.78,9-5.64a.86.86,0,0,1,1.28.15,10.05,10.05,0,0,0,8.13,2.84A10.42,10.42,0,0,0,103.8,52.44ZM13.51,88a4.05,4.05,0,0,1-3.11,1.31A4.07,4.07,0,0,1,7.29,88a5.11,5.11,0,0,1-1.22-3.62,5,5,0,0,1,1.22-3.57,4.09,4.09,0,0,1,3.11-1.29,4.07,4.07,0,0,1,3.11,1.29,5,5,0,0,1,1.22,3.57A5.11,5.11,0,0,1,13.51,88ZM41.3,55.06a4.35,4.35,0,0,1-6.22,0,5.12,5.12,0,0,1-1.22-3.63,5,5,0,0,1,1.22-3.56,4.39,4.39,0,0,1,6.22,0,5,5,0,0,1,1.22,3.56A5.12,5.12,0,0,1,41.3,55.06ZM69,75.9a4.35,4.35,0,0,1-6.22,0,5.14,5.14,0,0,1-1.22-3.63A5,5,0,0,1,62.8,68.7a4.39,4.39,0,0,1,6.22,0,5,5,0,0,1,1.22,3.57A5.14,5.14,0,0,1,69,75.9ZM96.8,58.54a4.36,4.36,0,0,1-6.23,0,5.15,5.15,0,0,1-1.21-3.63,5,5,0,0,1,1.21-3.57,4.41,4.41,0,0,1,6.23,0A5,5,0,0,1,98,54.91,5.15,5.15,0,0,1,96.8,58.54Z"/></g></g></svg>